<svg width="256" height="256" xmlns="http://www.w3.org/2000/svg"><path style="fill:#faf9ff;stroke:none;stroke-width:3.99331;fill-opacity:1" d="M0 0h256v256H0z"/><path d="M44.271 138.216q1.523 0 2.492-.23 1.015-.278 1.615-.693.6-.461.83-1.061.231-.6.231-1.339 0-1.568-1.476-2.584-1.477-1.061-5.076-2.26-1.569-.554-3.138-1.247-1.569-.738-2.815-1.8-1.246-1.107-2.03-2.63-.784-1.568-.784-3.783t.83-3.969q.83-1.8 2.354-3.045 1.522-1.246 3.691-1.892 2.169-.692 4.891-.692 3.23 0 5.584.692 2.353.692 3.876 1.523l-2.077 5.675q-1.338-.692-2.999-1.2-1.615-.553-3.922-.553-2.584 0-3.738.738-1.107.692-1.107 2.169 0 .877.415 1.477.415.6 1.154 1.107.784.462 1.753.877 1.015.369 2.215.784 2.492.923 4.338 1.846 1.845.877 3.045 2.077 1.246 1.2 1.846 2.814.6 1.615.6 3.923 0 4.476-3.138 6.967-3.138 2.446-9.46 2.446-2.122 0-3.83-.277-1.707-.23-3.045-.6-1.292-.369-2.261-.784-.923-.415-1.57-.785l2.031-5.722q1.43.785 3.507 1.431 2.123.6 5.168.6zM61.945 143.707v-34.7l6.875-1.108v11.628q.692-.23 1.754-.415 1.107-.23 2.122-.23 2.953 0 4.891.83 1.985.784 3.138 2.261 1.2 1.477 1.661 3.507.508 2.03.508 4.522v13.705h-6.875v-12.874q0-3.323-.877-4.707-.83-1.384-3.138-1.384-.923 0-1.754.184-.784.139-1.43.323v18.458ZM95.999 143.707h-6.876v-24.272H96zm.646-31.286q0 1.892-1.246 3-1.2 1.06-2.86 1.06-1.662 0-2.908-1.06-1.2-1.108-1.2-3t1.2-2.953q1.246-1.108 2.907-1.108t2.861 1.108q1.246 1.061 1.246 2.953zM118.01 131.756q0-3.184-1.43-5.076-1.431-1.938-4.246-1.938-.923 0-1.707.092-.785.046-1.292.138v12.413q.646.416 1.66.692 1.062.277 2.123.277 4.892 0 4.892-6.598zm7.014-.185q0 2.815-.692 5.122-.693 2.307-2.03 3.968-1.339 1.662-3.323 2.585-1.984.922-4.568.922-1.431 0-2.677-.276-1.246-.277-2.4-.785v9.137h-6.875v-31.978q.923-.277 2.123-.508 1.2-.277 2.492-.461 1.338-.185 2.676-.277 1.384-.139 2.63-.139 3 0 5.353.923 2.353.877 3.968 2.538 1.615 1.615 2.446 3.969.877 2.353.877 5.26zM145.88 131.756q0-3.184-1.43-5.076-1.43-1.938-4.245-1.938-.923 0-1.707.092-.785.046-1.292.138v12.413q.646.416 1.66.692 1.062.277 2.124.277 4.89 0 4.89-6.598zm7.015-.185q0 2.815-.692 5.122-.693 2.307-2.03 3.968-1.339 1.662-3.323 2.585-1.984.922-4.568.922-1.43 0-2.677-.276-1.246-.277-2.4-.785v9.137h-6.875v-31.978q.923-.277 2.123-.508 1.2-.277 2.492-.461 1.338-.185 2.676-.277 1.384-.139 2.63-.139 3 0 5.353.923 2.353.877 3.968 2.538 1.615 1.615 2.446 3.969.877 2.353.877 5.26zM165.077 143.707H158.2v-24.272h6.876zm.646-31.286q0 1.892-1.246 3-1.2 1.06-2.861 1.06-1.661 0-2.907-1.06-1.2-1.108-1.2-3t1.2-2.953q1.246-1.108 2.907-1.108t2.86 1.108q1.247 1.061 1.247 2.953zM171.537 120.266q1.753-.508 4.522-.923 2.769-.462 5.814-.462 3.092 0 5.122.831 2.077.784 3.277 2.261 1.2 1.477 1.707 3.507.507 2.03.507 4.522v13.705h-6.875v-12.874q0-3.323-.877-4.707t-3.276-1.384q-.738 0-1.569.092-.83.046-1.477.138v18.735h-6.875zM204.576 130.787q0 5.768 4.66 5.768 1.062 0 1.985-.277t1.569-.646v-10.983q-.508-.092-1.2-.138-.692-.092-1.615-.092-2.722 0-4.06 1.8-1.339 1.799-1.339 4.568zm15.09 9.874q0 5.953-3.046 8.814-3 2.907-9.321 2.907-2.215 0-4.43-.415-2.215-.37-4.107-1.015l1.2-5.768q1.615.646 3.368 1.015 1.8.369 4.061.369 2.953 0 4.153-1.292 1.246-1.292 1.246-3.322v-.877q-1.108.507-2.307.784-1.154.23-2.538.23-5.03 0-7.706-2.952-2.677-3-2.677-8.352 0-2.677.83-4.846.831-2.214 2.4-3.783 1.615-1.57 3.923-2.4 2.307-.877 5.214-.877 1.246 0 2.538.139 1.338.092 2.63.277 1.292.184 2.446.461 1.2.23 2.122.508zM32.297 195.896q1.523 0 2.492-.23 1.015-.278 1.615-.693.6-.462.83-1.061.231-.6.231-1.339 0-1.568-1.477-2.584-1.476-1.061-5.075-2.26-1.57-.554-3.138-1.247-1.57-.738-2.815-1.8-1.246-1.107-2.03-2.63-.785-1.568-.785-3.783t.83-3.969q.831-1.8 2.354-3.045 1.523-1.246 3.692-1.892 2.168-.692 4.89-.692 3.231 0 5.584.692 2.354.692 3.877 1.523l-2.077 5.675q-1.338-.692-3-1.2-1.614-.553-3.922-.553-2.584 0-3.737.738-1.108.692-1.108 2.169 0 .877.416 1.477.415.6 1.153 1.107.785.461 1.754.877 1.015.369 2.215.784 2.491.923 4.337 1.846 1.846.877 3.046 2.077 1.246 1.2 1.845 2.814.6 1.615.6 3.923 0 4.476-3.138 6.967-3.137 2.446-9.46 2.446-2.122 0-3.83-.277-1.706-.23-3.045-.6-1.292-.369-2.26-.784-.924-.415-1.57-.785l2.03-5.722q1.431.785 3.508 1.431 2.122.6 5.168.6zM56.846 201.387H49.97v-24.272h6.876zm.646-31.286q0 1.892-1.246 3-1.2 1.06-2.861 1.06-1.661 0-2.907-1.06-1.2-1.108-1.2-3t1.2-2.953q1.246-1.108 2.907-1.108t2.86 1.108q1.247 1.061 1.247 2.953zM76.641 188.513q0-3.323-.876-4.707-.83-1.384-2.907-1.384-.646 0-1.339.092-.692.046-1.338.138v18.735h-6.875v-23.441q.877-.231 2.03-.462 1.2-.277 2.492-.461 1.338-.23 2.722-.323 1.385-.139 2.723-.139 2.63 0 4.245.693 1.661.646 2.723 1.568 1.476-1.06 3.368-1.66 1.938-.6 3.553-.6 2.907 0 4.753.83 1.892.784 3 2.261 1.107 1.477 1.522 3.507.416 2.03.416 4.522v13.705h-6.876v-12.874q0-3.323-.877-4.707-.83-1.384-2.907-1.384-.553 0-1.569.277-.969.276-1.615.692.323 1.061.416 2.26.092 1.154.092 2.493v13.243h-6.876zM123.8 200.556q-1.753.508-4.521.923-2.769.462-5.814.462-3.092 0-5.169-.83-2.03-.831-3.23-2.308-1.2-1.523-1.707-3.6-.508-2.076-.508-4.568v-13.52h6.876v12.69q0 3.322.877 4.799.876 1.476 3.276 1.476.738 0 1.569-.046.83-.092 1.476-.184v-18.735h6.876zM139.951 201.848q-2.999-.046-4.89-.646-1.847-.6-2.954-1.66-1.061-1.108-1.477-2.631-.369-1.569-.369-3.507v-26.718l6.876-1.107v26.44q0 .924.138 1.662.138.738.508 1.246.415.507 1.153.83.739.323 1.984.416zM154.81 196.588q1.015 0 1.938-.046t1.477-.139v-5.214q-.416-.092-1.246-.185-.831-.092-1.523-.092-.97 0-1.846.139-.83.092-1.477.415-.646.323-1.015.877-.369.553-.369 1.384 0 1.615 1.061 2.261 1.108.6 3 .6zm-.554-20.119q3.046 0 5.076.692t3.23 1.984q1.246 1.292 1.754 3.138.507 1.846.507 4.107v14.305q-1.476.323-4.107.738-2.63.462-6.368.462-2.353 0-4.291-.416-1.892-.415-3.276-1.338-1.385-.969-2.123-2.492-.738-1.522-.738-3.737 0-2.123.83-3.6.877-1.476 2.308-2.353 1.43-.877 3.276-1.246 1.846-.415 3.83-.415 1.338 0 2.353.138 1.061.093 1.707.277v-.646q0-1.753-1.06-2.815-1.062-1.061-3.692-1.061-1.754 0-3.461.277-1.708.23-2.953.692l-.877-5.537q.6-.185 1.476-.37.923-.23 1.985-.369 1.061-.184 2.215-.276 1.2-.139 2.4-.139zM170.822 171.07l6.875-1.107v7.152h8.26v5.722h-8.26v8.537q0 2.168.739 3.46.784 1.293 3.091 1.293 1.108 0 2.261-.185 1.2-.23 2.17-.6l.968 5.353q-1.246.507-2.768.877-1.523.369-3.738.369-2.815 0-4.66-.739-1.846-.784-2.954-2.122-1.107-1.385-1.569-3.323-.415-1.938-.415-4.291zM213.32 189.205q0 2.86-.83 5.26-.83 2.354-2.4 4.061-1.568 1.661-3.783 2.584-2.169.923-4.892.923-2.676 0-4.89-.923-2.17-.923-3.739-2.584-1.568-1.707-2.445-4.06-.877-2.4-.877-5.261t.877-5.214q.923-2.354 2.492-4.015 1.615-1.661 3.783-2.584 2.215-.923 4.8-.923 2.63 0 4.798.923 2.215.923 3.784 2.584 1.57 1.661 2.446 4.015.877 2.353.877 5.214zm-7.013 0q0-3.184-1.292-4.984-1.246-1.845-3.6-1.845-2.353 0-3.645 1.845-1.292 1.8-1.292 4.984t1.292 5.076q1.292 1.846 3.645 1.846 2.354 0 3.6-1.846 1.292-1.892 1.292-5.076zM233.255 183.206q-.923-.23-2.169-.461-1.246-.277-2.676-.277-.646 0-1.57.138-.876.093-1.337.231v18.55h-6.876v-22.98q1.846-.646 4.338-1.2 2.538-.6 5.63-.6.553 0 1.338.093.784.046 1.568.184.785.093 1.57.277.784.139 1.338.37z" style="font-weight:700;font-size:46.1443px;font-family:Ubuntu;-inkscape-font-specification:'Ubuntu Bold';text-align:center;text-anchor:middle;fill:#5f3dc4;stroke-width:15.3814"/><path d="M128 78.966s-23.076-30.098-23.076-42.856a23.076 23.076 0 1 1 46.152 0c0 12.758-23.076 42.856-23.076 42.856zm0-36.263a6.593 6.593 0 1 0 0-13.186 6.593 6.593 0 0 0 0 13.186z" style="fill:#5f3dc4;fill-opacity:1;stroke-width:3.29664" transform="translate(0 26.966)"/></svg>